<?xml version="1.0" standalone="no"?>
<!DOCTYPE svg PUBLIC "-//W3C//DTD SVG 20010904//EN"
 "http://www.w3.org/TR/2001/REC-SVG-20010904/DTD/svg10.dtd">
<svg version="1.0" xmlns="http://www.w3.org/2000/svg"
 width="275.000000pt" height="275.000000pt" viewBox="0 0 275.000000 275.000000"
 preserveAspectRatio="xMidYMid meet">
<metadata>
Created by potrace 1.14, written by Peter Selinger 2001-2017
</metadata>
<g transform="translate(0.000000,275.000000) scale(0.100000,-0.100000)"
fill="#000000" stroke="none">
<path d="M1865 1508 l0 -353 83 -3 82 -3 0 356 0 355 -83 0 -83 0 1 -352z"/>
<path d="M1443 1812 c-7 -4 -12 -31 -11 -61 0 -57 -13 -75 -44 -65 -18 5 -20
-2 -20 -66 0 -67 1 -70 32 -70 22 0 30 -5 30 -17 1 -10 2 -74 3 -143 2 -105 5
-130 22 -160 33 -55 76 -74 170 -75 l80 0 0 65 0 65 -47 5 c-26 3 -50 9 -54
12 -5 5 -9 170 -5 230 1 14 10 17 46 16 25 0 49 3 53 6 3 4 7 34 7 66 2 65 -3
71 -59 65 -20 -2 -39 2 -43 8 -3 6 -7 36 -7 66 l-1 56 -70 2 c-39 1 -76 -1
-82 -5z"/>
<path d="M311 1689 c-18 -4 -54 -21 -78 -38 -44 -31 -44 -31 -43 -9 1 13 2 28
1 33 -1 6 -36 11 -81 11 l-80 2 0 -397 0 -397 78 2 c42 1 79 2 82 3 3 0 5 73
4 161 l-1 161 26 -25 c75 -72 213 -69 293 6 85 81 108 251 48 368 -45 88 -153
140 -249 119z m49 -152 c43 -22 69 -72 65 -127 -5 -76 -47 -121 -115 -122 -88
-1 -141 93 -106 186 25 66 94 94 156 63z"/>
<path d="M930 1688 c-154 -23 -239 -166 -205 -345 23 -122 125 -198 265 -197
85 1 135 21 190 76 27 26 60 83 60 102 0 2 -37 4 -82 4 -74 0 -86 -3 -109 -24
-48 -45 -137 -27 -159 32 -6 14 -10 30 -10 35 0 5 77 9 184 9 l185 0 3 43 c5
72 -36 168 -92 215 -48 41 -146 62 -230 50z m116 -146 c26 -20 46 -57 37 -66
-8 -7 -203 -8 -203 -1 0 19 35 67 53 75 36 14 91 11 113 -8z"/>
<path d="M2160 1677 c0 -4 32 -82 70 -173 39 -90 70 -166 70 -168 0 -2 10 -25
22 -52 12 -27 23 -51 23 -54 1 -3 7 -18 14 -35 11 -27 7 -39 -47 -160 -33 -71
-58 -132 -55 -135 2 -2 40 -5 84 -5 77 -1 81 1 94 25 29 58 315 739 315 752 0
11 -18 14 -82 14 l-83 -1 -62 -165 c-70 -188 -55 -187 -120 -10 -19 52 -42
113 -51 135 l-17 40 -87 1 c-49 0 -88 -4 -88 -9z"/>
</g>
</svg>
